<svg xmlns="http://www.w3.org/2000/svg" width="147" height="26" viewBox="0 0 147 26" role="img" aria-label="LinkedIn ungetsu"><rect x="0.5" y="0.5" width="146.2" height="25" rx="4" fill="none" stroke="#D8D3C8"/><g transform="translate(11 6) scale(0.58333)"><path d="M20.447 20.452h-3.554v-5.569c0-1.328-.027-3.037-1.852-3.037-1.853 0-2.136 1.445-2.136 2.939v5.667H9.351V9h3.414v1.561h.046c.477-.9 1.637-1.85 3.37-1.85 3.601 0 4.267 2.37 4.267 5.455v6.286zM5.337 7.433c-1.144 0-2.063-.926-2.063-2.065 0-1.138.92-2.063 2.063-2.063 1.14 0 2.064.925 2.064 2.063 0 1.139-.925 2.065-2.064 2.065zm1.782 13.019H3.555V9h3.564v11.452zM22.225 0H1.771C.792 0 0 .774 0 1.729v20.542C0 23.227.792 24 1.771 24h20.451C23.2 24 24 23.227 24 22.271V1.729C24 .774 23.2 0 22.222 0h.003z" fill="#0A66C2"/></g><path d="M40.5 15.2 40.5 18H32.4V17.7H32.7Q33.3 17.7 33.5 17.5Q33.8 17.4 33.8 17Q33.9 16.7 33.9 15.5V10.9Q33.9 9.8 33.8 9.4Q33.8 9.1 33.5 9Q33.3 8.8 32.6 8.8H32.4V8.5H37V8.8H36.5Q35.8 8.8 35.6 9Q35.4 9.1 35.3 9.4Q35.3 9.7 35.3 10.9V15.8Q35.3 16.9 35.3 17.1Q35.4 17.4 35.6 17.5Q35.9 17.7 36.7 17.7H37.4Q38.3 17.7 38.7 17.5Q39.1 17.4 39.5 16.9Q39.9 16.3 40.2 15.2Z M41.6 9.1Q41.6 8.8 41.8 8.6Q42 8.4 42.3 8.4Q42.6 8.4 42.8 8.6Q43 8.8 43 9.1Q43 9.4 42.8 9.7Q42.6 9.9 42.3 9.9Q42 9.9 41.8 9.7Q41.6 9.4 41.6 9.1ZM42.9 12V16Q42.9 17 43 17.2Q43 17.4 43.2 17.6Q43.4 17.7 43.8 17.7H43.9V18H40.9V17.7H41.1Q41.6 17.7 41.8 17.5Q41.9 17.4 41.9 17.2Q41.9 17 41.9 16V14.3Q41.9 13.3 41.9 13.1Q41.8 12.9 41.6 12.8Q41.4 12.7 41.1 12.7H40.9V12.4Q42.1 12.3 42.8 12Z M46.2 12H46.4Q46.5 12.5 46.6 13.2Q47.1 12.6 47.6 12.3Q48.2 12 48.8 12Q49.5 12 49.9 12.3Q50.3 12.6 50.5 13Q50.6 13.5 50.6 14.2V16Q50.6 17 50.6 17.2Q50.6 17.5 50.8 17.6Q51 17.7 51.5 17.7V18H48.6V17.7H48.7Q49.2 17.7 49.4 17.5Q49.5 17.4 49.6 17.2Q49.6 17 49.6 16V14.2Q49.6 13.5 49.5 13.2Q49.4 12.9 49.2 12.7Q48.9 12.5 48.4 12.5Q47.9 12.5 47.4 12.8Q47 13.1 46.6 13.7V16Q46.6 17 46.6 17.2Q46.6 17.5 46.8 17.6Q47 17.7 47.5 17.7V18H44.6V17.7Q45.1 17.7 45.3 17.6Q45.5 17.5 45.5 17.3Q45.6 17.1 45.6 16V14.3Q45.6 13.3 45.5 13.1Q45.5 12.9 45.3 12.8Q45.1 12.7 44.6 12.7V12.4Q45.4 12.3 46.2 12Z M55.6 12.3H57.9V12.6Q57.3 12.6 56.2 13.5Q55.9 13.8 55.1 14.4L57.2 16.8Q57.6 17.3 57.9 17.5Q58.2 17.7 58.5 17.7V18H55.6V17.7Q56.3 17.7 56.3 17.4Q56.3 17.2 55.8 16.7L54.4 15L54.1 15.2V16Q54.1 17 54.1 17.2Q54.1 17.4 54.3 17.5Q54.5 17.7 54.9 17.7V18H52V17.7H52.2Q52.7 17.7 52.9 17.5Q53 17.4 53.1 17.2Q53.1 17 53.1 16V10.3Q53.1 9.5 52.9 9.2Q52.8 9 52.2 9V8.7Q52.6 8.7 53.1 8.6Q53.7 8.5 53.9 8.4H54.1V14.8L54.7 14.4Q56.1 13.4 56.1 12.9Q56.1 12.6 55.6 12.6Z M64.1 14.2H60.1Q60.1 14.6 60.1 14.8Q60.1 16.3 60.6 17.1Q61 17.9 62 17.9Q63.2 17.9 63.8 16.7H64.1Q63.9 17.4 63.2 17.8Q62.5 18.2 61.8 18.2Q61 18.2 60.4 17.9Q59.7 17.5 59.3 16.8Q58.9 16.2 58.9 15.2Q58.9 13.8 59.7 12.9Q60.5 12 61.7 12Q62.8 12 63.4 12.7Q64.1 13.4 64.1 14.2ZM62.9 13.9Q62.9 13.8 62.9 13.6Q62.9 13 62.5 12.7Q62.2 12.4 61.7 12.4Q60.4 12.4 60.1 13.9Z M70 12.9V10.6Q70 9.7 70 9.5Q70 9.3 69.8 9.1Q69.6 9 69.2 9H69V8.7Q69.9 8.7 70.9 8.4H71V16.1Q71 17.1 71.1 17.3Q71.1 17.5 71.3 17.6Q71.5 17.7 72 17.7V18Q71 18.1 70.2 18.2Q70.1 17.9 70.1 17.2Q69.6 17.7 69 18Q68.5 18.2 67.9 18.2Q66.8 18.2 66 17.3Q65.2 16.4 65.2 15.2Q65.2 13.8 66 12.9Q66.8 12 67.9 12Q68.5 12 69 12.3Q69.6 12.5 70 12.9ZM70 13.3Q69.6 12.9 69.1 12.7Q68.6 12.5 68.2 12.5Q67.4 12.5 66.8 13.1Q66.3 13.7 66.3 15.1Q66.3 16.5 66.9 17.1Q67.4 17.8 68.2 17.8Q68.7 17.8 69.2 17.6Q69.6 17.3 70 16.8Z M72.5 8.8V8.5H76.8V8.8H76.6Q75.9 8.8 75.7 9Q75.5 9.1 75.4 9.4Q75.3 9.7 75.3 10.9V15.5Q75.3 16.7 75.4 17Q75.4 17.3 75.7 17.5Q75.9 17.7 76.5 17.7H76.8V18H72.5V17.7H72.7Q73.4 17.7 73.6 17.5Q73.8 17.4 73.9 17Q74 16.7 74 15.5V10.9Q74 9.8 73.9 9.4Q73.8 9.1 73.6 9Q73.4 8.8 72.7 8.8Z M79.1 12H79.3Q79.5 12.5 79.5 13.2Q80 12.6 80.6 12.3Q81.1 12 81.7 12Q82.4 12 82.8 12.3Q83.3 12.6 83.4 13Q83.5 13.5 83.5 14.2V16Q83.5 17 83.6 17.2Q83.6 17.5 83.8 17.6Q84 17.7 84.5 17.7V18H81.5V17.7H81.7Q82.2 17.7 82.3 17.5Q82.5 17.4 82.5 17.2Q82.5 17 82.5 16V14.2Q82.5 13.5 82.5 13.2Q82.4 12.9 82.1 12.7Q81.8 12.5 81.4 12.5Q80.8 12.5 80.4 12.8Q79.9 13.1 79.5 13.7V16Q79.5 17 79.5 17.2Q79.6 17.5 79.8 17.6Q80 17.7 80.5 17.7V18H77.6V17.7Q78 17.7 78.2 17.6Q78.4 17.5 78.5 17.3Q78.5 17.1 78.5 16V14.3Q78.5 13.3 78.5 13.1Q78.4 12.9 78.3 12.8Q78.1 12.7 77.6 12.7V12.4Q78.3 12.3 79.1 12Z" fill="#1C1C1C"/><path d="M98 12.3V16Q98 17 98 17.2Q98 17.4 98.2 17.6Q98.4 17.7 98.9 17.7V18Q97.8 18 97.3 18.2H97.2Q97 17.8 97 16.9Q96.6 17.6 96 17.9Q95.5 18.2 94.8 18.2Q94.2 18.2 93.8 18Q93.3 17.7 93.2 17.3Q93 17 93 16.2V14.2Q93 13.2 93 13Q92.9 12.8 92.8 12.7Q92.6 12.6 92.1 12.6V12.3H94V16.2Q94 16.8 94.1 17.1Q94.2 17.4 94.5 17.6Q94.7 17.8 95.1 17.8Q95.7 17.8 96.1 17.4Q96.6 17.1 96.8 16.7Q97 16.3 97 15.5V14.2Q97 13.3 97 13.1Q96.9 12.9 96.8 12.7Q96.6 12.6 96.1 12.6H96V12.3Z M101.2 12H101.4Q101.5 12.5 101.6 13.2Q102.1 12.6 102.6 12.3Q103.2 12 103.8 12Q104.5 12 104.9 12.3Q105.3 12.6 105.5 13Q105.6 13.5 105.6 14.2V16Q105.6 17 105.6 17.2Q105.7 17.5 105.8 17.6Q106 17.7 106.5 17.7V18H103.6V17.7H103.7Q104.2 17.7 104.4 17.5Q104.5 17.4 104.6 17.2Q104.6 17 104.6 16V14.2Q104.6 13.5 104.5 13.2Q104.4 12.9 104.2 12.7Q103.9 12.5 103.4 12.5Q102.9 12.5 102.4 12.8Q102 13.1 101.6 13.7V16Q101.6 17 101.6 17.2Q101.6 17.5 101.8 17.6Q102 17.7 102.5 17.7V18H99.6V17.7Q100.1 17.7 100.3 17.6Q100.5 17.5 100.5 17.3Q100.6 17.1 100.6 16V14.3Q100.6 13.3 100.5 13.1Q100.5 12.9 100.3 12.8Q100.1 12.7 99.6 12.7V12.4Q100.4 12.3 101.2 12Z M111.7 12.8Q112.3 12.1 112.9 12.1Q113.3 12.1 113.5 12.3Q113.6 12.5 113.6 12.7Q113.6 13.2 113.2 13.2Q113 13.2 112.8 12.9Q112.7 12.6 112.5 12.6Q112.2 12.6 111.9 13Q112.3 13.5 112.3 14.2Q112.3 15 111.7 15.7Q111.1 16.3 109.6 16.4Q108.2 16.4 108.2 17Q108.2 17.2 108.5 17.3Q108.8 17.4 109.9 17.5Q111 17.5 111.7 17.7Q112.3 17.9 112.7 18.3Q113 18.8 113 19.5Q113 20.4 112.3 21Q111.5 21.5 110.1 21.5Q108.8 21.5 108 21Q107.2 20.5 107.2 19.7Q107.2 19.3 107.5 19Q107.7 18.8 108.1 18.8Q108.2 18.8 108.3 18.8Q107.9 19.3 107.9 19.8Q107.9 20.4 108.4 20.8Q109 21.2 110.2 21.2Q111.2 21.2 111.7 20.8Q112.3 20.4 112.3 19.8Q112.3 19.1 111.8 18.8Q111.3 18.5 110 18.5Q108.5 18.4 108 18.1Q107.6 17.8 107.6 17.3Q107.6 16.4 108.9 16.2Q108.2 15.8 107.9 15.3Q107.5 14.8 107.5 14.1Q107.5 13.3 108.2 12.7Q108.9 12 109.9 12Q111 12 111.7 12.8ZM108.6 14.3Q108.6 15.2 109 15.6Q109.3 16 109.9 16Q110.4 16 110.8 15.6Q111.2 15.2 111.2 14.2Q111.2 13.2 110.8 12.8Q110.4 12.4 109.9 12.4Q109.2 12.4 108.9 12.9Q108.6 13.3 108.6 14.3Z M119.2 14.2H115.3Q115.2 14.6 115.2 14.8Q115.2 16.3 115.7 17.1Q116.2 17.9 117.1 17.9Q118.4 17.9 118.9 16.7H119.2Q119 17.4 118.4 17.8Q117.7 18.2 116.9 18.2Q116.2 18.2 115.5 17.9Q114.9 17.5 114.5 16.8Q114.1 16.2 114.1 15.2Q114.1 13.8 114.9 12.9Q115.7 12 116.9 12Q118 12 118.6 12.7Q119.2 13.4 119.2 14.2ZM118 13.9Q118 13.8 118 13.6Q118 13 117.7 12.7Q117.3 12.4 116.8 12.4Q115.5 12.4 115.3 13.9Z M123.7 12.6H122V16.1Q122 16.9 122.1 17.1Q122.1 17.4 122.4 17.6Q122.6 17.7 122.8 17.7Q123.4 17.7 123.7 17.2L123.9 17.3Q123.7 17.8 123.3 18Q122.9 18.2 122.4 18.2Q121.9 18.2 121.6 17.9Q121.2 17.6 121.1 17.2Q121 16.8 121 15.8V12.6H120.2V12.3Q120.7 12.3 121.2 11.8Q121.6 11.3 121.8 10.5H122V12.3H123.7Z M124.5 18.2V16.3H124.8Q125.3 17.9 126.5 17.9Q127 17.9 127.3 17.6Q127.6 17.3 127.6 16.9Q127.6 16.5 127.3 16.2Q127 15.9 126.2 15.5Q125.3 15.1 124.9 14.6Q124.6 14.2 124.6 13.6Q124.6 13.1 125 12.6Q125.4 12 126.1 12Q126.9 12 127.3 12.7Q127.4 12.5 127.6 12.1H127.9V13.9H127.6Q127.5 13.3 127.1 12.8Q126.7 12.4 126.1 12.4Q125.7 12.4 125.4 12.6Q125.2 12.9 125.2 13.2Q125.2 13.6 125.5 13.9Q125.8 14.1 126.5 14.5Q127.7 15 128 15.6Q128.3 16.1 128.3 16.5Q128.3 17.3 127.8 17.8Q127.3 18.2 126.5 18.2Q125.7 18.2 125.1 17.6Q124.9 17.8 124.8 18.2Z M135 12.3V16Q135 17 135 17.2Q135 17.4 135.2 17.6Q135.4 17.7 135.8 17.7V18Q134.8 18 134.3 18.2H134.2Q134 17.8 134 16.9Q133.5 17.6 133 17.9Q132.4 18.2 131.8 18.2Q131.2 18.2 130.8 18Q130.3 17.7 130.2 17.3Q130 17 130 16.2V14.2Q130 13.2 130 13Q129.9 12.8 129.7 12.7Q129.5 12.6 129.1 12.6V12.3H131V16.2Q131 16.8 131.1 17.1Q131.1 17.4 131.4 17.6Q131.7 17.8 132.1 17.8Q132.6 17.8 133.1 17.4Q133.6 17.1 133.8 16.7Q134 16.3 134 15.5V14.2Q134 13.3 133.9 13.1Q133.9 12.9 133.8 12.7Q133.6 12.6 133.1 12.6H133V12.3Z" fill="#777570"/></svg>
